<?xml version="1.0" encoding="UTF-8" standalone="no"?>
<!DOCTYPE svg PUBLIC "-//W3C//DTD SVG 20010904//EN"
              "http://www.w3.org/TR/2001/REC-SVG-20010904/DTD/svg10.dtd">

<svg xmlns="http://www.w3.org/2000/svg"
     width="0.5in" height="0.366667in"
     viewBox="0 0 150 110">
  <path id="Selection"
        fill="none" stroke="black" stroke-width="1"
        d="M 29.00,63.00
           C 29.00,63.00 45.00,79.00 45.00,79.00
             45.00,79.00 55.00,89.00 55.00,89.00
             57.59,91.60 61.75,95.32 62.53,99.00
             63.66,104.35 58.41,110.00 52.00,107.82
             47.50,106.28 41.48,99.48 38.00,96.00
             38.00,96.00 12.00,70.00 12.00,70.00
             7.71,65.71 1.22,60.79 2.24,54.00
             3.01,48.90 9.41,43.59 13.00,40.00
             13.00,40.00 40.00,13.00 40.00,13.00
             43.11,9.89 48.78,3.38 53.00,2.47
             59.20,1.13 64.16,7.14 62.09,13.00
             60.52,17.48 49.82,27.18 46.00,31.00
             46.00,31.00 30.00,47.00 30.00,47.00
             30.00,47.00 137.00,47.00 137.00,47.00
             140.19,47.01 144.09,46.71 146.77,48.74
             151.15,52.05 150.71,59.11 145.89,61.83
             143.43,63.21 139.77,63.00 137.00,63.00
             137.00,63.00 29.00,63.00 29.00,63.00 Z" />
</svg>
