<?xml version="1.0" encoding="UTF-8" standalone="no"?>
<!DOCTYPE svg PUBLIC "-//W3C//DTD SVG 20010904//EN"
              "http://www.w3.org/TR/2001/REC-SVG-20010904/DTD/svg10.dtd">

<svg xmlns="http://www.w3.org/2000/svg"
     width="1.4in" height="1.8in"
     viewBox="0 0 126 162">
  <path id="Selection"
        fill="none" stroke="black" stroke-width="1"
        d="M 47.00,57.00
           C 47.00,57.00 33.00,70.98 33.00,70.98
             28.97,74.89 24.85,78.31 19.00,78.78
             8.18,79.64 0.62,70.51 2.21,60.00
             3.34,52.54 9.94,47.06 15.00,42.00
             15.00,42.00 42.00,15.00 42.00,15.00
             49.86,7.14 54.00,0.84 66.00,2.11
             71.98,2.74 75.94,6.99 80.00,11.00
             80.00,11.00 101.00,32.00 101.00,32.00
             101.00,32.00 112.00,43.00 112.00,43.00
             118.75,49.76 125.43,55.48 123.79,66.00
             122.21,76.15 111.12,81.24 102.00,77.52
             95.53,74.88 84.41,62.41 79.00,57.00
             79.00,57.00 79.00,144.00 79.00,144.00
             78.88,153.96 73.86,161.92 63.00,161.92
             52.14,161.92 47.12,153.96 47.00,144.00
             47.00,144.00 47.00,57.00 47.00,57.00 Z" />
</svg>
