<?xml version="1.0" encoding="UTF-8" standalone="no"?>
<!DOCTYPE svg PUBLIC "-//W3C//DTD SVG 20010904//EN"
              "http://www.w3.org/TR/2001/REC-SVG-20010904/DTD/svg10.dtd">

<svg xmlns="http://www.w3.org/2000/svg"
     width="2.03333in" height="2.82222in"
     viewBox="0 0 183 254">
  <path id="Selection"
        fill="none" stroke="black" stroke-width="1"
        d="M 78.83,46.99
           C 78.83,46.99 51.48,74.30 51.48,74.30
             51.48,74.30 34.39,91.37 34.39,91.37
             29.95,95.79 23.59,102.89 17.30,104.22
             8.16,106.15 -1.50,97.19 2.23,86.25
             4.86,78.57 16.48,68.29 22.43,62.35
             22.43,62.35 66.86,17.98 66.86,17.98
             74.20,10.66 82.60,-0.42 94.21,1.32
             102.93,2.64 112.00,13.56 118.14,19.69
             118.14,19.69 164.28,65.77 164.28,65.77
             169.60,71.07 180.72,80.75 182.28,87.95
             184.57,98.53 174.30,107.00 164.28,103.47
             156.63,100.79 140.05,82.53 133.52,76.01
             133.52,76.01 106.17,48.70 106.17,48.70
             106.17,48.70 106.17,231.31 106.17,231.31
             106.16,236.76 106.67,243.41 103.20,247.99
             97.54,255.46 85.48,254.71 80.83,246.49
             78.47,242.29 78.83,236.04 78.83,231.31
             78.83,231.31 78.83,46.99 78.83,46.99 Z" />
</svg>
