<?xml version="1.0" encoding="UTF-8" standalone="no"?>
<!DOCTYPE svg PUBLIC "-//W3C//DTD SVG 20010904//EN"
              "http://www.w3.org/TR/2001/REC-SVG-20010904/DTD/svg10.dtd">

<svg xmlns="http://www.w3.org/2000/svg"
     width="0.573333in" height="0.573333in"
     viewBox="0 0 172 172">
  <path id="Selection"
        fill="none" stroke="black" stroke-width="1"
        d="M 15.00,2.53
           C 25.91,0.85 29.90,6.90 37.00,14.00
             37.00,14.00 70.00,47.00 70.00,47.00
             72.70,49.70 82.79,60.96 86.00,60.96
             89.21,60.96 99.30,49.70 102.00,47.00
             102.00,47.00 136.00,13.00 136.00,13.00
             141.51,7.49 146.38,1.35 155.00,2.20
             164.11,3.10 170.73,10.80 169.80,20.00
             169.04,27.55 162.07,32.93 157.00,38.00
             157.00,38.00 124.00,71.00 124.00,71.00
             121.58,73.42 111.87,82.43 111.20,85.00
             110.54,87.49 112.51,89.33 114.04,91.00
             114.04,91.00 126.00,103.00 126.00,103.00
             126.00,103.00 158.00,135.00 158.00,135.00
             162.85,139.85 169.07,144.69 169.80,152.00
             170.83,162.26 162.26,170.83 152.00,169.80
             144.45,169.04 139.07,162.07 134.00,157.00
             134.00,157.00 101.00,124.00 101.00,124.00
             98.58,121.58 89.57,111.87 87.00,111.20
             84.51,110.54 82.67,112.51 81.00,114.04
             81.00,114.04 69.00,126.00 69.00,126.00
             69.00,126.00 36.00,159.00 36.00,159.00
             30.49,164.51 25.62,170.65 17.00,169.80
             7.89,168.90 1.27,161.20 2.20,152.00
             2.90,145.02 8.35,140.65 13.00,136.00
             13.00,136.00 30.00,119.00 30.00,119.00
             30.00,119.00 52.00,97.00 52.00,97.00
             53.94,95.06 60.19,89.31 60.80,87.00
             61.46,84.51 59.49,82.67 57.96,81.00
             57.96,81.00 47.00,70.00 47.00,70.00
             47.00,70.00 19.00,42.00 19.00,42.00
             15.80,38.80 6.78,30.14 4.70,27.00
             -1.93,16.99 4.14,5.77 15.00,2.53 Z" />
</svg>
